Bevan.ufo
<glyph name="slash" format="1">
  <advance width="893"/>
  <unicode hex="002F"/>
  <outline>
    <contour>
      <point x="19" y="0" type="line"/>
      <point x="372" y="0" type="line"/>
      <point x="874" y="1623" type="line"/>
      <point x="510" y="1623" type="line"/>
    </contour>
  </outline>
</glyph>
<glyph name="one" format="1">
  <advance width="904"/>
  <unicode hex="0031"/>
  <outline>
    <contour>
      <point x="144" y="0" type="line"/>
      <point x="833" y="0" type="line"/>
      <point x="833" y="324" type="line"/>
      <point x="737" y="324" type="line"/>
      <point x="731" y="1375" type="line"/>
      <point x="69" y="1208" type="line"/>
      <point x="69" y="950" type="line"/>
      <point x="233" y="951" type="line"/>
      <point x="233" y="324" type="line"/>
      <point x="143" y="325" type="line"/>
    </contour>
  </outline>
</glyph>
<glyph name="nine" format="1">
  <advance width="1375"/>
  <unicode hex="0039"/>
  <outline>
    <contour>
      <point x="780" y="-2" type="line"/>
      <point x="795" y="13"/>
      <point x="819" y="37"/>
      <point x="851" y="70" type="curve" smooth="yes"/>
      <point x="883" y="103"/>
      <point x="911" y="132"/>
      <point x="935" y="156" type="curve" smooth="yes"/>
      <point x="959" y="180"/>
      <point x="988" y="211"/>
      <point x="1022" y="248" type="curve" smooth="yes"/>
      <point x="1056" y="285"/>
      <point x="1085" y="319"/>
      <point x="1110" y="350" type="curve" smooth="yes"/>
      <point x="1135" y="381"/>
      <point x="1161" y="417"/>
      <point x="1188" y="458" type="curve" smooth="yes"/>
      <point x="1215" y="499"/>
      <point x="1237" y="537"/>
      <point x="1254" y="573" type="curve" smooth="yes"/>
      <point x="1271" y="609"/>
      <point x="1285" y="648"/>
      <point x="1296" y="690" type="curve" smooth="yes"/>
      <point x="1307" y="732"/>
      <point x="1313" y="772"/>
      <point x="1313" y="811" type="curve" smooth="yes"/>
      <point x="1313" y="916"/>
      <point x="1287" y="1011"/>
      <point x="1234" y="1096" type="curve" smooth="yes"/>
      <point x="1181" y="1181"/>
      <point x="1108" y="1247"/>
      <point x="1015" y="1295" type="curve" smooth="yes"/>
      <point x="922" y="1343"/>
      <point x="818" y="1367"/>
      <point x="703" y="1367" type="curve" smooth="yes"/>
      <point x="515" y="1367"/>
      <point x="361" y="1312"/>
      <point x="241" y="1201" type="curve" smooth="yes"/>
      <point x="121" y="1090"/>
      <point x="61" y="950"/>
      <point x="61" y="781" type="curve" smooth="yes"/>
      <point x="61" y="650"/>
      <point x="107" y="541"/>
      <point x="200" y="453" type="curve" smooth="yes"/>
      <point x="293" y="365"/>
      <point x="408" y="321"/>
      <point x="546" y="321" type="curve"/>
      <point x="519" y="286"/>
      <point x="480" y="242"/>
      <point x="429" y="189" type="curve" smooth="yes"/>
      <point x="378" y="136"/>
      <point x="334" y="91"/>
      <point x="297" y="54" type="curve" smooth="yes"/>
      <point x="242" y="0" type="line"/>
    </contour>
    <contour>
      <point x="692" y="571" type="curve" smooth="yes"/>
      <point x="619" y="571"/>
      <point x="583" y="641"/>
      <point x="583" y="780" type="curve" smooth="yes"/>
      <point x="583" y="933"/>
      <point x="620" y="1010"/>
      <point x="694" y="1010" type="curve" smooth="yes"/>
      <point x="714" y="1010"/>
      <point x="731" y="1001"/>
      <point x="745" y="984" type="curve" smooth="yes"/>
      <point x="759" y="967"/>
      <point x="769" y="945"/>
      <point x="775" y="918" type="curve" smooth="yes"/>
      <point x="781" y="891"/>
      <point x="785" y="867"/>
      <point x="787" y="846" type="curve" smooth="yes"/>
      <point x="789" y="825"/>
      <point x="790" y="806"/>
      <point x="790" y="788" type="curve" smooth="yes"/>
      <point x="790" y="643"/>
      <point x="757" y="571"/>
    </contour>
  </outline>
</glyph>
<glyph name="equal" format="1">
  <advance width="719"/>
  <unicode hex="003D"/>
  <outline>
    <contour>
      <point x="36" y="169" type="line"/>
      <point x="683" y="169" type="line"/>
      <point x="683" y="392" type="line"/>
      <point x="36" y="392" type="line"/>
    </contour>
    <contour>
      <point x="36" y="538" type="line"/>
      <point x="683" y="538" type="line"/>
      <point x="683" y="761" type="line"/>
      <point x="36" y="761" type="line"/>
    </contour>
  </outline>
</glyph>
<glyph name="J" format="1">
  <advance width="1368"/>
  <unicode hex="004A"/>
  <outline>
    <contour>
      <point x="656" y="-30" type="curve" smooth="yes"/>
      <point x="965" y="-30"/>
      <point x="1152" y="167"/>
      <point x="1152" y="475" type="curve" smooth="yes"/>
      <point x="1152" y="1240" type="line"/>
      <point x="1312" y="1240" type="line"/>
      <point x="1312" y="1593" type="line"/>
      <point x="448" y="1593" type="line"/>
      <point x="448" y="1240" type="line"/>
      <point x="640" y="1240" type="line"/>
      <point x="640" y="572" type="line" smooth="yes"/>
      <point x="640" y="458"/>
      <point x="583" y="352"/>
      <point x="488" y="352" type="curve" smooth="yes"/>
      <point x="370" y="352"/>
      <point x="352" y="458"/>
      <point x="352" y="633" type="curve"/>
      <point x="64" y="633" type="line"/>
      <point x="64" y="-13" type="line"/>
      <point x="331" y="-13" type="line"/>
      <point x="368" y="99" type="line"/>
      <point x="427" y="26"/>
      <point x="523" y="-30"/>
    </contour>
    <contour>
      <point x="647" y="1592" type="move" name="top"/>
    </contour>
  </outline>
</glyph>
<glyph name="k" format="1">
  <advance width="1509"/>
  <unicode hex="006B"/>
  <outline>
    <contour>
      <point x="705.0" y="438.0" type="line"/>
      <point x="998.0" y="0.0" type="line"/>
      <point x="1474.0" y="0.0" type="line"/>
      <point x="1474.0" y="301.0" type="line"/>
      <point x="1316.0" y="301.0" type="line"/>
      <point x="1109.0" y="618.0" type="line"/>
      <point x="1110.0" y="618.0"/>
      <point x="1282.0" y="762.0"/>
      <point x="1282.0" y="761.0" type="curve"/>
      <point x="1442.0" y="761.0" type="line"/>
      <point x="1442.0" y="1072.0" type="line"/>
      <point x="802.0" y="1072.0" type="line"/>
      <point x="802.0" y="761.0" type="line"/>
      <point x="914.0" y="761.0" type="line"/>
      <point x="705.0" y="587.0" type="line"/>
    </contour>
    <component base="lc_tall_stem_2"/>
    <contour>
      <point x="724.0" y="0.0" type="move" name="bottom"/>
    </contour>
  </outline>
</glyph>
<glyph name="l" format="1">
  <advance width="979.0"/>
  <unicode hex="006C"/>
  <outline>
    <component base="lc_tall_stem" xOffset="44.0"/>
    <contour>
      <point x="460.0" y="1072" type="move" name="top"/>
    </contour>
    <contour>
      <point x="460.0" y="0" type="move" name="bottom"/>
    </contour>
    <contour>
      <point x="840.0" y="1072" type="move" name="topright"/>
    </contour>
  </outline>
</glyph>
<glyph name="o" format="1">
  <advance width="1365"/>
  <unicode hex="006F"/>
  <outline>
    <contour>
      <point x="683" y="274" type="curve" smooth="yes"/>
      <point x="598" y="274"/>
      <point x="555" y="352"/>
      <point x="555" y="546" type="curve" smooth="yes"/>
      <point x="555" y="724"/>
      <point x="594" y="799"/>
      <point x="683" y="799" type="curve" smooth="yes"/>
      <point x="772" y="799"/>
      <point x="811" y="724"/>
      <point x="811" y="546" type="curve" smooth="yes"/>
      <point x="811" y="352"/>
      <point x="767" y="274"/>
    </contour>
    <contour>
      <point x="683" y="-18" type="curve" smooth="yes"/>
      <point x="1044" y="-18"/>
      <point x="1291" y="187"/>
      <point x="1291" y="547" type="curve" smooth="yes"/>
      <point x="1291" y="902"/>
      <point x="1043" y="1091"/>
      <point x="683" y="1091" type="curve" smooth="yes"/>
      <point x="323" y="1091"/>
      <point x="75" y="902"/>
      <point x="75" y="547" type="curve" smooth="yes"/>
      <point x="75" y="187"/>
      <point x="322" y="-18"/>
    </contour>
    <contour>
      <point x="656" y="1072" type="move" name="top"/>
    </contour>
  </outline>
</glyph>
<glyph name="s" format="1">
  <advance width="1185"/>
  <unicode hex="0073"/>
  <outline>
    <contour>
      <point x="646" y="-18" type="curve" smooth="yes"/>
      <point x="875" y="-18"/>
      <point x="1088" y="101"/>
      <point x="1088" y="343" type="curve" smooth="yes"/>
      <point x="1088" y="723"/>
      <point x="584" y="711"/>
      <point x="576" y="843" type="curve"/>
      <point x="576" y="883"/>
      <point x="608" y="890"/>
      <point x="649" y="890" type="curve" smooth="yes"/>
      <point x="735" y="890"/>
      <point x="798" y="835"/>
      <point x="832" y="752" type="curve"/>
      <point x="1024" y="752" type="line"/>
      <point x="1024" y="1072" type="line"/>
      <point x="858" y="1072" type="line"/>
      <point x="834" y="1005" type="line"/>
      <point x="742" y="1062"/>
      <point x="638" y="1091"/>
      <point x="531" y="1091" type="curve" smooth="yes"/>
      <point x="287" y="1091"/>
      <point x="64" y="980"/>
      <point x="64" y="775" type="curve" smooth="yes"/>
      <point x="64" y="430"/>
      <point x="564" y="412"/>
      <point x="564" y="268" type="curve" smooth="yes"/>
      <point x="564" y="215"/>
      <point x="523" y="198"/>
      <point x="491" y="198" type="curve" smooth="yes"/>
      <point x="385" y="198"/>
      <point x="304" y="303"/>
      <point x="287" y="396" type="curve"/>
      <point x="64" y="396" type="line"/>
      <point x="64" y="0" type="line"/>
      <point x="249" y="0" type="line"/>
      <point x="282" y="90" type="line"/>
      <point x="389" y="16"/>
      <point x="516" y="-18"/>
    </contour>
    <contour>
      <point x="570" y="1072" type="move" name="top"/>
    </contour>
    <contour>
      <point x="570" y="0" type="move" name="bottom"/>
    </contour>
  </outline>
</glyph>
<glyph name="x" format="1">
  <advance width="1329"/>
  <unicode hex="0078"/>
  <outline>
    <contour>
      <point x="83" y="0" type="line"/>
      <point x="380" y="0" type="line"/>
      <point x="587" y="277" type="line"/>
      <point x="776" y="0" type="line"/>
      <point x="1249" y="0" type="line"/>
      <point x="1249" y="301" type="line"/>
      <point x="1118" y="301" type="line"/>
      <point x="925" y="580" type="line"/>
      <point x="1088" y="761" type="line"/>
      <point x="1218" y="761" type="line"/>
      <point x="1218" y="1072" type="line"/>
      <point x="944" y="1072" type="line"/>
      <point x="759" y="821" type="line"/>
      <point x="597" y="1072" type="line"/>
      <point x="103" y="1072" type="line"/>
      <point x="103" y="761" type="line"/>
      <point x="232" y="761" type="line"/>
      <point x="414" y="512" type="line"/>
      <point x="234" y="301" type="line"/>
      <point x="83" y="301" type="line"/>
    </contour>
  </outline>
</glyph>
<glyph name="braceright" format="1">
  <advance width="858"/>
  <unicode hex="007D"/>
  <outline>
    <contour>
      <point x="36" y="-16" type="line"/>
      <point x="248" y="-16"/>
      <point x="423" y="49"/>
      <point x="526" y="157" type="curve" smooth="yes"/>
      <point x="618" y="253"/>
      <point x="682" y="385"/>
      <point x="682" y="561" type="curve" smooth="yes"/>
      <point x="682" y="672"/>
      <point x="736" y="720"/>
      <point x="847" y="724" type="curve"/>
      <point x="846" y="722" type="line"/>
      <point x="846" y="965" type="line"/>
      <point x="735" y="969"/>
      <point x="681" y="1017"/>
      <point x="681" y="1128" type="curve" smooth="yes"/>
      <point x="681" y="1207"/>
      <point x="668" y="1280"/>
      <point x="642" y="1348" type="curve" smooth="yes"/>
      <point x="556" y="1572"/>
      <point x="350" y="1704"/>
      <point x="36" y="1704" type="curve"/>
      <point x="36" y="1373" type="line"/>
      <point x="144" y="1373"/>
      <point x="198" y="1291"/>
      <point x="198" y="1127" type="curve" smooth="yes"/>
      <point x="198" y="1000"/>
      <point x="282" y="905"/>
      <point x="449" y="843" type="curve"/>
      <point x="282" y="782"/>
      <point x="198" y="688"/>
      <point x="198" y="561" type="curve" smooth="yes"/>
      <point x="198" y="397"/>
      <point x="144" y="315"/>
      <point x="36" y="315" type="curve"/>
    </contour>
  </outline>
</glyph>
<glyph name="asciitilde" format="1">
  <advance width="1270"/>
  <unicode hex="007E"/>
  <outline>
    <contour>
      <point x="895" y="629" type="line"/>
      <point x="983" y="629"/>
      <point x="1040" y="673"/>
      <point x="1079" y="728" type="curve" smooth="yes"/>
      <point x="1141" y="815"/>
      <point x="1186" y="941"/>
      <point x="1246" y="1031" type="curve"/>
      <point x="1117" y="1116" type="line"/>
      <point x="1048" y="1033"/>
      <point x="1000" y="980"/>
      <point x="973" y="957" type="curve" smooth="yes"/>
      <point x="946" y="934"/>
      <point x="924" y="922"/>
      <point x="907" y="922" type="curve" smooth="yes"/>
      <point x="834" y="922"/>
      <point x="759" y="962"/>
      <point x="706" y="992" type="curve" smooth="yes"/>
      <point x="617" y="1043"/>
      <point x="513" y="1121"/>
      <point x="378" y="1121" type="curve" smooth="yes"/>
      <point x="244" y="1121"/>
      <point x="182" y="1018"/>
      <point x="134" y="929" type="curve" smooth="yes"/>
      <point x="105" y="875"/>
      <point x="56" y="769"/>
      <point x="24" y="720" type="curve"/>
      <point x="155" y="634" type="line"/>
      <point x="228" y="721"/>
      <point x="277" y="776"/>
      <point x="302" y="799" type="curve" smooth="yes"/>
      <point x="327" y="822"/>
      <point x="349" y="833"/>
      <point x="367" y="833" type="curve" smooth="yes"/>
      <point x="396" y="833"/>
      <point x="428" y="826"/>
      <point x="463" y="812" type="curve" smooth="yes"/>
      <point x="536" y="783"/>
      <point x="600" y="740"/>
      <point x="667" y="702" type="curve" smooth="yes"/>
      <point x="725" y="669"/>
      <point x="809" y="631"/>
      <point x="893" y="631" type="curve"/>
    </contour>
  </outline>
</glyph>
<glyph name="exclamdown" format="1">
  <advance width="689"/>
  <unicode hex="00A1"/>
  <outline>
    <contour>
      <point x="343" y="1157" type="curve"/>
      <point x="345" y="1158" type="line"/>
      <point x="426" y="1158"/>
      <point x="494" y="1180"/>
      <point x="549" y="1225" type="curve" smooth="yes"/>
      <point x="604" y="1270"/>
      <point x="631" y="1331"/>
      <point x="631" y="1408" type="curve" smooth="yes"/>
      <point x="631" y="1483"/>
      <point x="604" y="1543"/>
      <point x="551" y="1587" type="curve" smooth="yes"/>
      <point x="498" y="1631"/>
      <point x="429" y="1653"/>
      <point x="344" y="1653" type="curve" smooth="yes"/>
      <point x="263" y="1653"/>
      <point x="196" y="1631"/>
      <point x="144" y="1587" type="curve" smooth="yes"/>
      <point x="92" y="1543"/>
      <point x="66" y="1483"/>
      <point x="66" y="1408" type="curve" smooth="yes"/>
      <point x="66" y="1331"/>
      <point x="92" y="1270"/>
      <point x="145" y="1225" type="curve" smooth="yes"/>
      <point x="198" y="1180"/>
      <point x="264" y="1157"/>
    </contour>
    <contour>
      <point x="53" y="0" type="line"/>
      <point x="640" y="0" type="line"/>
      <point x="640" y="299" type="line"/>
      <point x="556" y="1072" type="line"/>
      <point x="135" y="1074" type="line"/>
      <point x="53" y="299" type="line"/>
    </contour>
  </outline>
</glyph>
<glyph name="currency" format="1">
  <advance width="1234"/>
  <unicode hex="00A4"/>
  <outline>
    <contour>
      <point x="614" y="540" type="curve" smooth="yes"/>
      <point x="746" y="540"/>
      <point x="862" y="574"/>
      <point x="963" y="643" type="curve"/>
      <point x="1049" y="557" type="line"/>
      <point x="1152" y="660" type="line"/>
      <point x="1071" y="741" type="line"/>
      <point x="1149" y="836"/>
      <point x="1188" y="955"/>
      <point x="1188" y="1097" type="curve" smooth="yes"/>
      <point x="1188" y="1234"/>
      <point x="1151" y="1350"/>
      <point x="1078" y="1445" type="curve"/>
      <point x="1152" y="1519" type="line"/>
      <point x="1049" y="1622" type="line"/>
      <point x="972" y="1545" type="line"/>
      <point x="870" y="1618"/>
      <point x="751" y="1655"/>
      <point x="614" y="1655" type="curve" smooth="yes"/>
      <point x="481" y="1655"/>
      <point x="364" y="1620"/>
      <point x="262" y="1550" type="curve"/>
      <point x="191" y="1622" type="line"/>
      <point x="88" y="1519" type="line"/>
      <point x="155" y="1451" type="line"/>
      <point x="78" y="1356"/>
      <point x="40" y="1238"/>
      <point x="40" y="1098" type="curve" smooth="yes"/>
      <point x="40" y="1097" type="line" smooth="yes"/>
      <point x="40" y="952"/>
      <point x="81" y="831"/>
      <point x="162" y="734" type="curve"/>
      <point x="88" y="660" type="line"/>
      <point x="191" y="557" type="line"/>
      <point x="272" y="638" type="line"/>
      <point x="371" y="573"/>
      <point x="485" y="540"/>
    </contour>
    <contour>
      <point x="613" y="701" type="curve" smooth="yes"/>
      <point x="565" y="701"/>
      <point x="519" y="709"/>
      <point x="474" y="726" type="curve" smooth="yes"/>
      <point x="429" y="743"/>
      <point x="388" y="767"/>
      <point x="352" y="799" type="curve" smooth="yes"/>
      <point x="316" y="831"/>
      <point x="287" y="873"/>
      <point x="265" y="925" type="curve" smooth="yes"/>
      <point x="243" y="977"/>
      <point x="232" y="1034"/>
      <point x="232" y="1097" type="curve" smooth="yes"/>
      <point x="232" y="1160"/>
      <point x="243" y="1217"/>
      <point x="265" y="1269" type="curve" smooth="yes"/>
      <point x="287" y="1321"/>
      <point x="316" y="1363"/>
      <point x="352" y="1395" type="curve" smooth="yes"/>
      <point x="388" y="1427"/>
      <point x="428" y="1451"/>
      <point x="473" y="1468" type="curve" smooth="yes"/>
      <point x="518" y="1485"/>
      <point x="564" y="1493"/>
      <point x="612" y="1493" type="curve" smooth="yes"/>
      <point x="660" y="1493"/>
      <point x="706" y="1484"/>
      <point x="751" y="1467" type="curve" smooth="yes"/>
      <point x="796" y="1450"/>
      <point x="836" y="1426"/>
      <point x="872" y="1394" type="curve" smooth="yes"/>
      <point x="908" y="1362"/>
      <point x="937" y="1320"/>
      <point x="958" y="1268" type="curve"/>
      <point x="961" y="1270" type="line"/>
      <point x="983" y="1219"/>
      <point x="994" y="1162"/>
      <point x="994" y="1099" type="curve" smooth="yes"/>
      <point x="994" y="1036"/>
      <point x="983" y="978"/>
      <point x="961" y="926" type="curve" smooth="yes"/>
      <point x="939" y="874"/>
      <point x="910" y="832"/>
      <point x="874" y="800" type="curve" smooth="yes"/>
      <point x="838" y="768"/>
      <point x="797" y="744"/>
      <point x="752" y="727" type="curve" smooth="yes"/>
      <point x="707" y="710"/>
      <point x="661" y="701"/>
    </contour>
  </outline>
</glyph>
<glyph name="brokenbar" format="1">
  <advance width="544"/>
  <unicode hex="00A6"/>
  <outline>
    <contour>
      <point x="74" y="0" type="line"/>
      <point x="469" y="0" type="line"/>
      <point x="469" y="721" type="line"/>
      <point x="74" y="721" type="line"/>
    </contour>
    <contour>
      <point x="74" y="902" type="line"/>
      <point x="469" y="902" type="line"/>
      <point x="469" y="1623" type="line"/>
      <point x="74" y="1623" type="line"/>
    </contour>
  </outline>
</glyph>
<glyph name="ordfeminine" format="1">
  <advance width="1030"/>
  <unicode hex="00AA"/>
  <outline>
    <contour>
      <point x="343" y="807" type="curve" smooth="yes"/>
      <point x="384" y="807"/>
      <point x="426" y="816"/>
      <point x="469" y="834" type="curve" smooth="yes"/>
      <point x="512" y="852"/>
      <point x="546" y="877"/>
      <point x="571" y="909" type="curve"/>
      <point x="608" y="821" type="line"/>
      <point x="956" y="821" type="line"/>
      <point x="956" y="1046" type="line"/>
      <point x="900" y="1046" type="line"/>
      <point x="900" y="1374" type="line" smooth="yes"/>
      <point x="900" y="1408"/>
      <point x="894" y="1439"/>
      <point x="881" y="1466" type="curve" smooth="yes"/>
      <point x="868" y="1493"/>
      <point x="852" y="1515"/>
      <point x="834" y="1532" type="curve" smooth="yes"/>
      <point x="816" y="1549"/>
      <point x="793" y="1564"/>
      <point x="765" y="1576" type="curve" smooth="yes"/>
      <point x="737" y="1588"/>
      <point x="711" y="1597"/>
      <point x="687" y="1603" type="curve" smooth="yes"/>
      <point x="663" y="1609"/>
      <point x="636" y="1614"/>
      <point x="605" y="1617" type="curve" smooth="yes"/>
      <point x="574" y="1620"/>
      <point x="550" y="1622"/>
      <point x="534" y="1623" type="curve" smooth="yes"/>
      <point x="518" y="1624"/>
      <point x="500" y="1624"/>
      <point x="480" y="1624" type="curve" smooth="yes"/>
      <point x="427" y="1624"/>
      <point x="371" y="1620"/>
      <point x="311" y="1611" type="curve" smooth="yes"/>
      <point x="251" y="1602"/>
      <point x="205" y="1593"/>
      <point x="172" y="1584" type="curve" smooth="yes"/>
      <point x="122" y="1571" type="line"/>
      <point x="122" y="1339" type="line"/>
      <point x="252" y="1339" type="line"/>
      <point x="287" y="1386"/>
      <point x="340" y="1409"/>
      <point x="410" y="1409" type="curve" smooth="yes"/>
      <point x="514" y="1409"/>
      <point x="566" y="1368"/>
      <point x="566" y="1287" type="curve" smooth="yes"/>
      <point x="566" y="1254" type="line"/>
      <point x="512" y="1273"/>
      <point x="449" y="1282"/>
      <point x="377" y="1282" type="curve" smooth="yes"/>
      <point x="336" y="1282"/>
      <point x="297" y="1277"/>
      <point x="259" y="1267" type="curve" smooth="yes"/>
      <point x="221" y="1257"/>
      <point x="187" y="1242"/>
      <point x="156" y="1223" type="curve" smooth="yes"/>
      <point x="125" y="1204"/>
      <point x="100" y="1179"/>
      <point x="82" y="1148" type="curve" smooth="yes"/>
      <point x="64" y="1117"/>
      <point x="55" y="1082"/>
      <point x="55" y="1044" type="curve"/>
      <point x="56" y="1046" type="line"/>
      <point x="56" y="973"/>
      <point x="84" y="915"/>
      <point x="140" y="872" type="curve" smooth="yes"/>
      <point x="196" y="829"/>
      <point x="264" y="807"/>
    </contour>
    <contour>
      <point x="485" y="983" type="curve" smooth="yes"/>
      <point x="464" y="983"/>
      <point x="447" y="990"/>
      <point x="434" y="1004" type="curve" smooth="yes"/>
      <point x="421" y="1018"/>
      <point x="415" y="1036"/>
      <point x="415" y="1059" type="curve"/>
      <point x="417" y="1058" type="line"/>
      <point x="417" y="1079"/>
      <point x="424" y="1098"/>
      <point x="439" y="1115" type="curve" smooth="yes"/>
      <point x="454" y="1132"/>
      <point x="472" y="1140"/>
      <point x="493" y="1140" type="curve" smooth="yes"/>
      <point x="504" y="1140"/>
      <point x="515" y="1139"/>
      <point x="527" y="1137" type="curve" smooth="yes"/>
      <point x="539" y="1135"/>
      <point x="549" y="1132"/>
      <point x="556" y="1129" type="curve" smooth="yes"/>
      <point x="566" y="1125" type="line"/>
      <point x="566" y="1016" type="line"/>
      <point x="557" y="1007" type="line" smooth="yes"/>
      <point x="553" y="1003"/>
      <point x="544" y="998"/>
      <point x="530" y="992" type="curve" smooth="yes"/>
      <point x="516" y="986"/>
      <point x="501" y="983"/>
    </contour>
  </outline>
</glyph>
<glyph name="logicalnot" format="1">
  <advance width="1137"/>
  <unicode hex="00AC"/>
  <outline>
    <contour>
      <point x="836" y="542" type="line"/>
      <point x="1067" y="542" type="line"/>
      <point x="1067" y="1092" type="line"/>
      <point x="56" y="1092" type="line"/>
      <point x="57" y="761" type="line"/>
      <point x="836" y="761" type="line"/>
    </contour>
  </outline>
</glyph>
<glyph name="twosuperior" format="1">
  <advance width="873"/>
  <unicode hex="00B2"/>
  <outline>
    <contour>
      <point x="105" y="286" type="line"/>
      <point x="793" y="286" type="line"/>
      <point x="793" y="570" type="line"/>
      <point x="689" y="570" type="line"/>
      <point x="689" y="536"/>
      <point x="677" y="513"/>
      <point x="654" y="501" type="curve" smooth="yes"/>
      <point x="631" y="489"/>
      <point x="599" y="482"/>
      <point x="558" y="481" type="curve" smooth="yes"/>
      <point x="461" y="481" type="line"/>
      <point x="571" y="564"/>
      <point x="643" y="627"/>
      <point x="677" y="671" type="curve" smooth="yes"/>
      <point x="720" y="725"/>
      <point x="741" y="783"/>
      <point x="741" y="845" type="curve" smooth="yes"/>
      <point x="741" y="929"/>
      <point x="711" y="995"/>
      <point x="652" y="1043" type="curve" smooth="yes"/>
      <point x="593" y="1091"/>
      <point x="518" y="1117"/>
      <point x="427" y="1120" type="curve" smooth="yes"/>
      <point x="372" y="1122"/>
      <point x="318" y="1113"/>
      <point x="266" y="1094" type="curve" smooth="yes"/>
      <point x="214" y="1075"/>
      <point x="170" y="1044"/>
      <point x="134" y="1002" type="curve" smooth="yes"/>
      <point x="98" y="960"/>
      <point x="80" y="911"/>
      <point x="80" y="856" type="curve"/>
      <point x="78" y="765"/>
      <point x="108" y="692"/>
      <point x="169" y="637" type="curve"/>
      <point x="306" y="742" type="line"/>
      <point x="281" y="765"/>
      <point x="268" y="791"/>
      <point x="268" y="819" type="curve" smooth="yes"/>
      <point x="268" y="844"/>
      <point x="275" y="864"/>
      <point x="289" y="880" type="curve" smooth="yes"/>
      <point x="303" y="896"/>
      <point x="323" y="904"/>
      <point x="349" y="904" type="curve" smooth="yes"/>
      <point x="370" y="904"/>
      <point x="388" y="894"/>
      <point x="404" y="875" type="curve" smooth="yes"/>
      <point x="420" y="856"/>
      <point x="429" y="831"/>
      <point x="431" y="800" type="curve"/>
      <point x="431" y="767"/>
      <point x="424" y="736"/>
      <point x="410" y="707" type="curve" smooth="yes"/>
      <point x="396" y="678"/>
      <point x="381" y="655"/>
      <point x="365" y="639" type="curve" smooth="yes"/>
      <point x="349" y="623"/>
      <point x="326" y="602"/>
      <point x="295" y="576" type="curve" smooth="yes"/>
      <point x="243" y="533"/>
      <point x="178" y="496"/>
      <point x="101" y="465" type="curve"/>
    </contour>
  </outline>
</glyph>
<glyph name="onehalf" format="1">
  <advance width="1790"/>
  <unicode hex="00BD"/>
  <outline>
    <contour>
      <point x="1036" y="-1" type="line"/>
      <point x="1724" y="-1" type="line"/>
      <point x="1724" y="283" type="line"/>
      <point x="1620" y="283" type="line"/>
      <point x="1620" y="249"/>
      <point x="1608" y="226"/>
      <point x="1585" y="214" type="curve" smooth="yes"/>
      <point x="1562" y="202"/>
      <point x="1530" y="195"/>
      <point x="1489" y="194" type="curve" smooth="yes"/>
      <point x="1392" y="194" type="line"/>
      <point x="1502" y="277"/>
      <point x="1574" y="340"/>
      <point x="1608" y="384" type="curve" smooth="yes"/>
      <point x="1651" y="438"/>
      <point x="1672" y="496"/>
      <point x="1672" y="558" type="curve" smooth="yes"/>
      <point x="1672" y="642"/>
      <point x="1642" y="708"/>
      <point x="1583" y="756" type="curve" smooth="yes"/>
      <point x="1524" y="804"/>
      <point x="1449" y="830"/>
      <point x="1358" y="833" type="curve" smooth="yes"/>
      <point x="1303" y="835"/>
      <point x="1249" y="826"/>
      <point x="1197" y="807" type="curve" smooth="yes"/>
      <point x="1145" y="788"/>
      <point x="1101" y="757"/>
      <point x="1065" y="715" type="curve" smooth="yes"/>
      <point x="1029" y="673"/>
      <point x="1011" y="624"/>
      <point x="1011" y="569" type="curve"/>
      <point x="1009" y="478"/>
      <point x="1039" y="405"/>
      <point x="1100" y="350" type="curve"/>
      <point x="1237" y="455" type="line"/>
      <point x="1212" y="478"/>
      <point x="1199" y="504"/>
      <point x="1199" y="532" type="curve" smooth="yes"/>
      <point x="1199" y="557"/>
      <point x="1206" y="577"/>
      <point x="1220" y="593" type="curve" smooth="yes"/>
      <point x="1234" y="609"/>
      <point x="1254" y="617"/>
      <point x="1280" y="617" type="curve" smooth="yes"/>
      <point x="1301" y="617"/>
      <point x="1319" y="607"/>
      <point x="1335" y="588" type="curve" smooth="yes"/>
      <point x="1351" y="569"/>
      <point x="1360" y="544"/>
      <point x="1362" y="513" type="curve"/>
      <point x="1362" y="480"/>
      <point x="1355" y="449"/>
      <point x="1341" y="420" type="curve" smooth="yes"/>
      <point x="1327" y="391"/>
      <point x="1312" y="368"/>
      <point x="1296" y="352" type="curve" smooth="yes"/>
      <point x="1280" y="336"/>
      <point x="1257" y="315"/>
      <point x="1226" y="289" type="curve" smooth="yes"/>
      <point x="1174" y="246"/>
      <point x="1109" y="209"/>
      <point x="1032" y="178" type="curve"/>
    </contour>
    <contour>
      <point x="101" y="818" type="line"/>
      <point x="504" y="818" type="line"/>
      <point x="504" y="1008" type="line"/>
      <point x="448" y="1008" type="line"/>
      <point x="444" y="1623" type="line"/>
      <point x="57" y="1525" type="line"/>
      <point x="57" y="1374" type="line"/>
      <point x="153" y="1375" type="line"/>
      <point x="153" y="1008" type="line"/>
      <point x="100" y="1008" type="line"/>
    </contour>
    <contour>
      <point x="346" y="0" type="line"/>
      <point x="699" y="0" type="line"/>
      <point x="1201" y="1623" type="line"/>
      <point x="837" y="1623" type="line"/>
    </contour>
  </outline>
</glyph>
<glyph name="germandbls" format="1">
  <advance width="1748"/>
  <unicode hex="00DF"/>
  <outline>
    <contour>
      <point x="1056" y="-21" type="line"/>
      <point x="1159" y="-21"/>
      <point x="1251" y="-9"/>
      <point x="1332" y="16" type="curve" smooth="yes"/>
      <point x="1413" y="41"/>
      <point x="1479" y="74"/>
      <point x="1529" y="116" type="curve" smooth="yes"/>
      <point x="1579" y="158"/>
      <point x="1617" y="205"/>
      <point x="1643" y="258" type="curve" smooth="yes"/>
      <point x="1669" y="311"/>
      <point x="1682" y="367"/>
      <point x="1682" y="426" type="curve" smooth="yes"/>
      <point x="1682" y="525"/>
      <point x="1647" y="618"/>
      <point x="1577" y="705" type="curve" smooth="yes"/>
      <point x="1507" y="792"/>
      <point x="1408" y="856"/>
      <point x="1281" y="897" type="curve"/>
      <point x="1352" y="937"/>
      <point x="1407" y="987"/>
      <point x="1447" y="1048" type="curve" smooth="yes"/>
      <point x="1487" y="1109"/>
      <point x="1507" y="1171"/>
      <point x="1507" y="1235" type="curve" smooth="yes"/>
      <point x="1507" y="1275"/>
      <point x="1499" y="1313"/>
      <point x="1484" y="1350" type="curve" smooth="yes"/>
      <point x="1469" y="1387"/>
      <point x="1445" y="1422"/>
      <point x="1412" y="1455" type="curve" smooth="yes"/>
      <point x="1379" y="1488"/>
      <point x="1338" y="1517"/>
      <point x="1290" y="1541" type="curve" smooth="yes"/>
      <point x="1242" y="1565"/>
      <point x="1182" y="1584"/>
      <point x="1111" y="1598" type="curve" smooth="yes"/>
      <point x="1040" y="1612"/>
      <point x="961" y="1619"/>
      <point x="875" y="1619" type="curve"/>
      <point x="879" y="1623" type="line"/>
      <point x="799" y="1623"/>
      <point x="727" y="1618"/>
      <point x="664" y="1607" type="curve" smooth="yes"/>
      <point x="601" y="1596"/>
      <point x="542" y="1578"/>
      <point x="488" y="1553" type="curve" smooth="yes"/>
      <point x="434" y="1528"/>
      <point x="389" y="1495"/>
      <point x="353" y="1455" type="curve" smooth="yes"/>
      <point x="317" y="1415"/>
      <point x="289" y="1364"/>
      <point x="269" y="1303" type="curve" smooth="yes"/>
      <point x="249" y="1242"/>
      <point x="239" y="1172"/>
      <point x="239" y="1092" type="curve" smooth="yes"/>
      <point x="239" y="369" type="line"/>
      <point x="67" y="369" type="line"/>
      <point x="67" y="0" type="line"/>
      <point x="918" y="0" type="line"/>
      <point x="918" y="350" type="line"/>
      <point x="901" y="349"/>
      <point x="851" y="349"/>
      <point x="767" y="349" type="curve"/>
      <point x="766" y="1131" type="line" smooth="yes"/>
      <point x="766" y="1181"/>
      <point x="779" y="1217"/>
      <point x="806" y="1240" type="curve" smooth="yes"/>
      <point x="833" y="1263"/>
      <point x="867" y="1274"/>
      <point x="908" y="1274" type="curve" smooth="yes"/>
      <point x="957" y="1274"/>
      <point x="994" y="1260"/>
      <point x="1018" y="1232" type="curve" smooth="yes"/>
      <point x="1042" y="1204"/>
      <point x="1054" y="1167"/>
      <point x="1054" y="1122" type="curve" smooth="yes"/>
      <point x="1054" y="1069"/>
      <point x="1033" y="1019"/>
      <point x="991" y="971" type="curve" smooth="yes"/>
      <point x="949" y="923"/>
      <point x="898" y="899"/>
      <point x="839" y="899" type="curve"/>
      <point x="842" y="748" type="line"/>
      <point x="959" y="748"/>
      <point x="1048" y="727"/>
      <point x="1109" y="685" type="curve" smooth="yes"/>
      <point x="1170" y="643"/>
      <point x="1200" y="591"/>
      <point x="1200" y="530" type="curve" smooth="yes"/>
      <point x="1200" y="462"/>
      <point x="1152" y="401"/>
      <point x="1055" y="346" type="curve"/>
    </contour>
  </outline>
</glyph>
<glyph name="divide" format="1">
  <advance width="846"/>
  <unicode hex="00F7"/>
  <outline>
    <contour>
      <point x="442" y="-19" type="curve"/>
      <point x="442" y="-18" type="line"/>
      <point x="509" y="-18"/>
      <point x="565" y="0"/>
      <point x="610" y="37" type="curve" smooth="yes"/>
      <point x="655" y="74"/>
      <point x="678" y="124"/>
      <point x="678" y="187" type="curve" smooth="yes"/>
      <point x="678" y="248"/>
      <point x="656" y="297"/>
      <point x="612" y="333" type="curve" smooth="yes"/>
      <point x="568" y="369"/>
      <point x="511" y="387"/>
      <point x="442" y="387" type="curve" smooth="yes"/>
      <point x="375" y="387"/>
      <point x="320" y="369"/>
      <point x="278" y="333" type="curve" smooth="yes"/>
      <point x="236" y="297"/>
      <point x="215" y="248"/>
      <point x="215" y="187" type="curve" smooth="yes"/>
      <point x="215" y="124"/>
      <point x="237" y="74"/>
      <point x="280" y="37" type="curve" smooth="yes"/>
      <point x="323" y="0"/>
      <point x="377" y="-19"/>
    </contour>
    <contour>
      <point x="442" y="884" type="curve"/>
      <point x="442" y="885" type="line"/>
      <point x="509" y="885"/>
      <point x="565" y="903"/>
      <point x="610" y="940" type="curve" smooth="yes"/>
      <point x="655" y="977"/>
      <point x="678" y="1027"/>
      <point x="678" y="1090" type="curve" smooth="yes"/>
      <point x="678" y="1151"/>
      <point x="656" y="1200"/>
      <point x="612" y="1236" type="curve" smooth="yes"/>
      <point x="568" y="1272"/>
      <point x="511" y="1290"/>
      <point x="442" y="1290" type="curve" smooth="yes"/>
      <point x="375" y="1290"/>
      <point x="320" y="1272"/>
      <point x="278" y="1236" type="curve" smooth="yes"/>
      <point x="236" y="1200"/>
      <point x="215" y="1151"/>
      <point x="215" y="1090" type="curve" smooth="yes"/>
      <point x="215" y="1027"/>
      <point x="237" y="977"/>
      <point x="280" y="940" type="curve" smooth="yes"/>
      <point x="323" y="903"/>
      <point x="377" y="884"/>
    </contour>
    <contour>
      <point x="39" y="538" type="line"/>
      <point x="813" y="538" type="line"/>
      <point x="813" y="761" type="line"/>
      <point x="39" y="761" type="line"/>
    </contour>
  </outline>
</glyph>
<glyph name="emdash" format="1">
  <advance width="1306"/>
  <unicode hex="2014"/>
  <outline>
    <contour>
      <point x="68" y="537" type="line"/>
      <point x="1238" y="537" type="line"/>
      <point x="1238" y="836" type="line"/>
      <point x="68" y="836" type="line"/>
    </contour>
  </outline>
</glyph>
<glyph name="quoteleft" format="1">
  <advance width="651"/>
  <unicode hex="2018"/>
  <outline>
    <contour>
      <point x="75" y="840" type="curve"/>
      <point x="585" y="840" type="line"/>
      <point x="585" y="1206" type="line"/>
      <point x="396" y="1206" type="line"/>
      <point x="396" y="1234"/>
      <point x="396" y="1255"/>
      <point x="397" y="1270" type="curve" smooth="yes"/>
      <point x="398" y="1285"/>
      <point x="400" y="1302"/>
      <point x="404" y="1322" type="curve" smooth="yes"/>
      <point x="408" y="1342"/>
      <point x="414" y="1357"/>
      <point x="422" y="1368" type="curve" smooth="yes"/>
      <point x="430" y="1379"/>
      <point x="441" y="1389"/>
      <point x="455" y="1399" type="curve" smooth="yes"/>
      <point x="469" y="1409"/>
      <point x="487" y="1416"/>
      <point x="509" y="1420" type="curve" smooth="yes"/>
      <point x="531" y="1424"/>
      <point x="557" y="1426"/>
      <point x="587" y="1426" type="curve"/>
      <point x="586" y="1428" type="line"/>
      <point x="586" y="1653" type="line"/>
      <point x="403" y="1653"/>
      <point x="268" y="1610"/>
      <point x="181" y="1524" type="curve" smooth="yes"/>
      <point x="94" y="1438"/>
      <point x="51" y="1302"/>
      <point x="51" y="1117" type="curve" smooth="yes"/>
      <point x="51" y="1035"/>
      <point x="59" y="943"/>
    </contour>
  </outline>
</glyph>
<glyph name="quotesinglbase" format="1">
  <advance width="593"/>
  <unicode hex="201A"/>
  <outline>
    <contour>
      <point x="35" y="-448" type="curve"/>
      <point x="35" y="-223" type="line"/>
      <point x="34" y="-224" type="line"/>
      <point x="64" y="-224"/>
      <point x="90" y="-222"/>
      <point x="112" y="-218" type="curve" smooth="yes"/>
      <point x="134" y="-214"/>
      <point x="152" y="-207"/>
      <point x="166" y="-197" type="curve" smooth="yes"/>
      <point x="180" y="-187"/>
      <point x="191" y="-176"/>
      <point x="199" y="-165" type="curve" smooth="yes"/>
      <point x="207" y="-154"/>
      <point x="213" y="-139"/>
      <point x="217" y="-119" type="curve" smooth="yes"/>
      <point x="221" y="-99"/>
      <point x="223" y="-81"/>
      <point x="224" y="-66" type="curve" smooth="yes"/>
      <point x="225" y="-51"/>
      <point x="225" y="-29"/>
      <point x="225" y="-1" type="curve"/>
      <point x="36" y="-1" type="line"/>
      <point x="36" y="365" type="line"/>
      <point x="546" y="365" type="line"/>
      <point x="562" y="262"/>
      <point x="570" y="170"/>
      <point x="570" y="88" type="curve" smooth="yes"/>
      <point x="570" y="-97"/>
      <point x="527" y="-233"/>
      <point x="440" y="-319" type="curve" smooth="yes"/>
      <point x="353" y="-405"/>
      <point x="218" y="-448"/>
    </contour>
  </outline>
</glyph>
<glyph name="lc_tall_stem_2" format="1">
  <advance width="0"/>
  <outline>
    <contour>
      <point x="50.0" y="0.0" type="line"/>
      <point x="705" y="0" type="line"/>
      <point x="705.0" y="1560.0" type="line"/>
      <point x="50.0" y="1495.0" type="line"/>
      <point x="50.0" y="1222.0" type="line"/>
      <point x="225.0" y="1222.0" type="line"/>
      <point x="225.0" y="301.0" type="line"/>
      <point x="50.0" y="301.0" type="line"/>
    </contour>
  </outline>
</glyph>
<glyph name="lc_xheight_curved_stem_2" format="1">
  <advance width="1560"/>
  <outline>
    <contour>
      <point x="728.0" y="506.0" type="line"/>
      <point x="728.0" y="636.0"/>
      <point x="728.0" y="791.0"/>
      <point x="839.0" y="791.0" type="curve" smooth="yes"/>
      <point x="893.0" y="791.0"/>
      <point x="933.0" y="738.0"/>
      <point x="933.0" y="681.0" type="curve" smooth="yes"/>
      <point x="933.0" y="0.0" type="line"/>
      <point x="1413" y="0" type="line"/>
      <point x="1413.0" y="680.0" type="line" smooth="yes"/>
      <point x="1413" y="955"/>
      <point x="1304.0" y="1091.0"/>
      <point x="1084.0" y="1091.0" type="curve" smooth="yes"/>
      <point x="837.0" y="1091.0"/>
      <point x="642.0" y="976.0"/>
      <point x="547.0" y="506.0" type="curve"/>
    </contour>
  </outline>
</glyph>
